<mxfile host="65bd71144e">
    <diagram id="x0K4bE87An97uGjYwhXi" name="PÃ¡gina-1">
        <mxGraphModel dx="850" dy="604" grid="0" gridSize="10" guides="1" tooltips="1" connect="1" arrows="1" fold="1" page="1" pageScale="1" pageWidth="1169" pageHeight="1654" background="#000000" math="0" shadow="0">
            <root>
                <mxCell id="0"/>
                <mxCell id="1" parent="0"/>
                <mxCell id="10" value="" style="edgeStyle=none;html=1;shape=link;startArrow=none;" edge="1" parent="1" source="18" target="5">
                    <mxGeometry relative="1" as="geometry"/>
                </mxCell>
                <mxCell id="11" value="" style="edgeStyle=none;html=1;shape=link;startArrow=none;" edge="1" parent="1" source="25" target="8">
                    <mxGeometry relative="1" as="geometry"/>
                </mxCell>
                <mxCell id="2" value="Reino de los Demonios" style="ellipse;whiteSpace=wrap;html=1;aspect=fixed;fillColor=#660000;strokeColor=#3A5431;fontSize=15;fontColor=#ffffff;gradientColor=#CC0000;" vertex="1" parent="1">
                    <mxGeometry x="414" y="280" width="80" height="80" as="geometry"/>
                </mxCell>
                <mxCell id="3" value="Planeta de Bills" style="ellipse;whiteSpace=wrap;html=1;aspect=fixed;fillColor=#4C0099;strokeColor=#3700CC;fontColor=#ffffff;gradientColor=#B266FF;fontSize=14;" vertex="1" parent="1">
                    <mxGeometry x="70" y="430" width="80" height="80" as="geometry"/>
                </mxCell>
                <mxCell id="15" value="" style="edgeStyle=none;shape=link;html=1;startArrow=none;" edge="1" parent="1" source="23" target="7">
                    <mxGeometry relative="1" as="geometry"/>
                </mxCell>
                <mxCell id="16" value="" style="edgeStyle=none;shape=link;html=1;startArrow=none;" edge="1" parent="1" source="17" target="3">
                    <mxGeometry relative="1" as="geometry"/>
                </mxCell>
                <mxCell id="4" value="Tierra" style="ellipse;whiteSpace=wrap;html=1;aspect=fixed;fillColor=#008a00;fontSize=15;labelBorderColor=none;fontColor=#ffffff;strokeColor=#005700;gradientDirection=west;" vertex="1" parent="1">
                    <mxGeometry x="260" y="90" width="80" height="80" as="geometry"/>
                </mxCell>
                <mxCell id="14" value="" style="edgeStyle=none;shape=link;html=1;startArrow=none;" edge="1" parent="1" source="19" target="4">
                    <mxGeometry relative="1" as="geometry"/>
                </mxCell>
                <mxCell id="5" value="NAMEK" style="ellipse;whiteSpace=wrap;html=1;aspect=fixed;fillColor=#60a917;fontColor=#ffffff;strokeColor=#2D7600;gradientColor=#33FF33;gradientDirection=radial;" vertex="1" parent="1">
                    <mxGeometry x="510" y="50" width="80" height="80" as="geometry"/>
                </mxCell>
                <mxCell id="6" value="&lt;font color=&quot;#ffffff&quot;&gt;Planeta Yadart&lt;/font&gt;" style="ellipse;whiteSpace=wrap;html=1;aspect=fixed;fillColor=#fa6800;fontColor=#000000;strokeColor=#C73500;gradientColor=#FF8000;gradientDirection=radial;fontSize=14;" vertex="1" parent="1">
                    <mxGeometry x="730" y="450" width="80" height="80" as="geometry"/>
                </mxCell>
                <mxCell id="7" value="La habitacion del Tiempo" style="ellipse;whiteSpace=wrap;html=1;aspect=fixed;fillColor=#fad9d5;strokeColor=#ae4132;gradientColor=default;labelBackgroundColor=none;labelBorderColor=none;fontColor=#000000;fontSize=12;" vertex="1" parent="1">
                    <mxGeometry x="145" y="35" width="70" height="70" as="geometry"/>
                </mxCell>
                <mxCell id="8" value="Planeta Kaio" style="ellipse;whiteSpace=wrap;html=1;aspect=fixed;fillColor=#006633;fontColor=#ffffff;strokeColor=#6D1F00;gradientColor=#994C00;gradientDirection=west;fontSize=14;" vertex="1" parent="1">
                    <mxGeometry x="560" y="505" width="80" height="80" as="geometry"/>
                </mxCell>
                <mxCell id="12" value="" style="edgeStyle=none;shape=link;html=1;startArrow=none;" edge="1" parent="1" source="29" target="5">
                    <mxGeometry relative="1" as="geometry"/>
                </mxCell>
                <mxCell id="13" value="" style="edgeStyle=none;shape=link;html=1;startArrow=none;" edge="1" parent="1" source="27" target="6">
                    <mxGeometry relative="1" as="geometry"/>
                </mxCell>
                <mxCell id="9" value="Vegeta" style="ellipse;whiteSpace=wrap;html=1;aspect=fixed;fillColor=#FF0000;fontColor=#ffffff;strokeColor=#6F0000;gradientColor=#FF9933;fontSize=14;" vertex="1" parent="1">
                    <mxGeometry x="720" y="210" width="80" height="80" as="geometry"/>
                </mxCell>
                <mxCell id="20" value="" style="edgeStyle=none;shape=link;html=1;endArrow=none;" edge="1" parent="1" source="5" target="19">
                    <mxGeometry relative="1" as="geometry">
                        <mxPoint x="540.1053673216425" y="112.90142783115334" as="sourcePoint"/>
                        <mxPoint x="359.88217942006145" y="126.9321400446106" as="targetPoint"/>
                    </mxGeometry>
                </mxCell>
                <mxCell id="19" value="90" style="text;html=1;strokeColor=none;fillColor=none;align=center;verticalAlign=middle;whiteSpace=wrap;rounded=0;labelBackgroundColor=none;labelBorderColor=none;fontSize=14;fontColor=#000000;" vertex="1" parent="1">
                    <mxGeometry x="400" y="90" width="60" height="30" as="geometry"/>
                </mxCell>
                <mxCell id="21" value="" style="edgeStyle=none;html=1;shape=link;endArrow=none;" edge="1" parent="1" source="2" target="18">
                    <mxGeometry relative="1" as="geometry">
                        <mxPoint x="474.57983021710356" y="285.7002829714943" as="sourcePoint"/>
                        <mxPoint x="559.4201697829067" y="144.29971702848889" as="targetPoint"/>
                    </mxGeometry>
                </mxCell>
                <mxCell id="18" value="70" style="text;html=1;strokeColor=none;fillColor=none;align=center;verticalAlign=middle;whiteSpace=wrap;rounded=0;labelBackgroundColor=none;labelBorderColor=none;fontSize=14;fontColor=#FFFFFF;" vertex="1" parent="1">
                    <mxGeometry x="480" y="200" width="60" height="30" as="geometry"/>
                </mxCell>
                <mxCell id="22" value="" style="edgeStyle=none;shape=link;html=1;endArrow=none;" edge="1" parent="1" source="4" target="17">
                    <mxGeometry relative="1" as="geometry">
                        <mxPoint x="299.0111926372649" y="164.0509906682671" as="sourcePoint"/>
                        <mxPoint x="131.01971522887243" y="435.96808010563495" as="targetPoint"/>
                    </mxGeometry>
                </mxCell>
                <mxCell id="17" value="180" style="text;html=1;strokeColor=none;fillColor=none;align=center;verticalAlign=middle;whiteSpace=wrap;rounded=0;labelBackgroundColor=none;labelBorderColor=none;fontSize=14;fontColor=#FFFFFF;" vertex="1" parent="1">
                    <mxGeometry x="170" y="300" width="60" height="30" as="geometry"/>
                </mxCell>
                <mxCell id="24" value="" style="edgeStyle=none;shape=link;html=1;endArrow=none;" edge="1" parent="1" source="4" target="23">
                    <mxGeometry relative="1" as="geometry">
                        <mxPoint x="280.1670038174791" y="126.3486420166023" as="sourcePoint"/>
                        <mxPoint x="199.83725047443863" y="118.37134682010696" as="targetPoint"/>
                    </mxGeometry>
                </mxCell>
                <mxCell id="23" value="10" style="text;html=1;strokeColor=none;fillColor=none;align=center;verticalAlign=middle;whiteSpace=wrap;rounded=0;labelBackgroundColor=none;labelBorderColor=none;fontSize=14;fontColor=#FFFFFF;" vertex="1" parent="1">
                    <mxGeometry x="210" y="110" width="60" height="30" as="geometry"/>
                </mxCell>
                <mxCell id="26" value="" style="edgeStyle=none;html=1;shape=link;endArrow=none;" edge="1" parent="1" source="2" target="25">
                    <mxGeometry relative="1" as="geometry">
                        <mxPoint x="475.7810083835593" y="353.5497790424181" as="sourcePoint"/>
                        <mxPoint x="578.2266821785206" y="511.4452293847062" as="targetPoint"/>
                    </mxGeometry>
                </mxCell>
                <mxCell id="25" value="90" style="text;html=1;strokeColor=none;fillColor=none;align=center;verticalAlign=middle;whiteSpace=wrap;rounded=0;labelBackgroundColor=none;labelBorderColor=none;fontSize=14;fontColor=#FFFFFF;" vertex="1" parent="1">
                    <mxGeometry x="490" y="410" width="60" height="30" as="geometry"/>
                </mxCell>
                <mxCell id="28" value="" style="edgeStyle=none;shape=link;html=1;endArrow=none;" edge="1" parent="1" source="9" target="27">
                    <mxGeometry relative="1" as="geometry">
                        <mxPoint x="761.5987215339549" y="289.96803834887396" as="sourcePoint"/>
                        <mxPoint x="768.3347782115127" y="450.03467707630625" as="targetPoint"/>
                    </mxGeometry>
                </mxCell>
                <mxCell id="27" value="50" style="text;html=1;strokeColor=none;fillColor=none;align=center;verticalAlign=middle;whiteSpace=wrap;rounded=0;labelBackgroundColor=none;labelBorderColor=none;fontSize=14;fontColor=#FFFFFF;" vertex="1" parent="1">
                    <mxGeometry x="740" y="360" width="60" height="30" as="geometry"/>
                </mxCell>
                <mxCell id="30" value="" style="edgeStyle=none;shape=link;html=1;endArrow=none;" edge="1" parent="1" source="9" target="29">
                    <mxGeometry relative="1" as="geometry">
                        <mxPoint x="728.4144231278929" y="225.4571531061331" as="sourcePoint"/>
                        <mxPoint x="611.5740886950539" y="134.55762454059754" as="targetPoint"/>
                    </mxGeometry>
                </mxCell>
                <mxCell id="29" value="90" style="text;html=1;strokeColor=none;fillColor=none;align=center;verticalAlign=middle;whiteSpace=wrap;rounded=0;labelBackgroundColor=none;labelBorderColor=none;fontSize=14;fontColor=#FFFFFF;" vertex="1" parent="1">
                    <mxGeometry x="630" y="160" width="60" height="30" as="geometry"/>
                </mxCell>
            </root>
        </mxGraphModel>
    </diagram>
</mxfile>